<svg xmlns="http://www.w3.org/2000/svg" viewBox="0 0 256 256" width="256" height="256">
  <rect width="256" height="256" rx="40" fill="#1E293B"/>

  <g transform="translate(22, 34) scale(0.22) translate(0, 960)">
    <path d="M160-160q-33 0-56.5-23.5T80-240v-480q0-33 23.5-56.5T160-800h640q33 0 56.5 23.5T880-720v480q0 33-23.5 56.5T800-160H160Zm0-80h640v-400H160v400Zm140-40-56-56 103-104-104-104 57-56 160 160-160 160Zm180 0v-80h240v80H480Z" fill="#E2E8F0"/>
  </g>

  <g transform="translate(128, 8) scale(4.5)">
    <path d="M8.5,5A1.5,1.5 0 0,0 7,6.5A1.5,1.5 0 0,0 8.5,8A1.5,1.5 0 0,0 10,6.5A1.5,1.5 0 0,0 8.5,5M10,2A5,5 0 0,1 15,7C15,8.7 14.15,10.2 12.86,11.1C14.44,11.25 16.22,11.61 18,12.5C21,14 22,12 22,12C22,12 21,21 15,21H9C9,21 4,21 4,16C4,13 7,12 6,10C2,10 2,6.5 2,6.5C3,7 4.24,7 5,6.65C5.19,4.05 7.36,2 10,2Z" fill="#FBBF24"/>
  </g>
</svg>
